<svg width="42" height="41" viewBox="0 0 42 41" fill="none" xmlns="http://www.w3.org/2000/svg">
<g clip-path="url(#clip0_18848_3708)">
<rect width="41.1737" height="40.908" rx="3.54182" fill="#FAFAFA"/>
<path d="M26.9317 11.8779C25.7751 12.2779 25.0726 12.7534 23.7323 14.0505L22.4785 15.2611L16.5012 14.6017L10.524 13.9424L9.3458 15.1206C8.69727 15.7691 8.20007 16.3312 8.2433 16.3636C8.28654 16.4068 10.0916 17.0553 12.2642 17.8228C14.4367 18.5794 16.6201 19.3468 17.1173 19.5305L18.0144 19.8548L15.3339 22.5354L12.6425 25.2268H10.7509H8.8486L8.39463 25.6916C8.03794 26.0591 7.96228 26.1888 8.07036 26.2752C8.14603 26.3293 9.20529 26.9021 10.4267 27.5399L12.6425 28.6856L13.8314 30.9014C14.4908 32.1228 15.0745 33.1172 15.1285 33.1172C15.1934 33.1172 15.4311 32.9334 15.6473 32.7065L16.0472 32.2957V30.5015V28.7072L18.7062 26.0699C20.1654 24.6323 21.3868 23.4325 21.43 23.4109C21.4733 23.4001 22.2515 25.5402 23.1702 28.1668C24.089 30.8041 24.878 32.9983 24.9321 33.0631C24.9861 33.1172 25.4725 32.7173 26.1535 32.0363C27.1371 31.0527 27.2884 30.8582 27.2884 30.5447C27.2884 30.3501 26.9965 27.6371 26.6398 24.5026L25.9913 18.8172L27.2668 17.5093C28.9745 15.7475 29.6663 14.4288 29.6663 12.9372C29.6663 12.3103 29.6339 12.2022 29.3529 11.9212C29.0718 11.6401 28.9637 11.6077 28.3476 11.6077C27.9045 11.6077 27.4073 11.705 26.9317 11.8779Z" fill="white"/>
<path d="M26.9317 11.8779C25.7751 12.2779 25.0726 12.7534 23.7323 14.0505L22.4785 15.2611L16.5012 14.6017L10.524 13.9424L9.3458 15.1206C8.69727 15.7691 8.20007 16.3312 8.2433 16.3636C8.28654 16.4068 10.0916 17.0553 12.2642 17.8228C14.4367 18.5794 16.6201 19.3468 17.1173 19.5305L18.0144 19.8548L15.3339 22.5354L12.6425 25.2268H10.7509H8.8486L8.39463 25.6916C8.03794 26.0591 7.96228 26.1888 8.07036 26.2752C8.14603 26.3293 9.20529 26.9021 10.4267 27.5399L12.6425 28.6856L13.8314 30.9014C14.4908 32.1228 15.0745 33.1172 15.1285 33.1172C15.1934 33.1172 15.4311 32.9334 15.6473 32.7065L16.0472 32.2957V30.5015V28.7072L18.7062 26.0699C20.1654 24.6323 21.3868 23.4325 21.43 23.4109C21.4733 23.4001 22.2515 25.5402 23.1702 28.1668C24.089 30.8041 24.878 32.9983 24.9321 33.0631C24.9861 33.1172 25.4725 32.7173 26.1535 32.0363C27.1371 31.0527 27.2884 30.8582 27.2884 30.5447C27.2884 30.3501 26.9965 27.6371 26.6398 24.5026L25.9913 18.8172L27.2668 17.5093C28.9745 15.7475 29.6663 14.4288 29.6663 12.9372C29.6663 12.3103 29.6339 12.2022 29.3529 11.9212C29.0718 11.6401 28.9637 11.6077 28.3476 11.6077C27.9045 11.6077 27.4073 11.705 26.9317 11.8779Z" fill="url(#paint0_linear_18848_3708)"/>
<circle cx="37.5211" cy="4.31797" r="6.08751" fill="white"/>
<circle cx="37.5211" cy="4.31797" r="6.08751" fill="url(#paint1_linear_18848_3708)"/>
<circle cx="7.85839" cy="33.0952" r="3.43114" fill="white"/>
<circle cx="1.5496" cy="38.7371" r="2.87773" fill="white"/>
<circle cx="1.5496" cy="38.7371" r="2.87773" fill="url(#paint2_linear_18848_3708)"/>
</g>
<defs>
<linearGradient id="paint0_linear_18848_3708" x1="8.89754" y1="33.1172" x2="29.674" y2="11.5919" gradientUnits="userSpaceOnUse">
<stop stop-color="#1219D2"/>
<stop offset="1" stop-color="#4E52B1"/>
</linearGradient>
<linearGradient id="paint1_linear_18848_3708" x1="31.9245" y1="-1.76953" x2="43.687" y2="10.3426" gradientUnits="userSpaceOnUse">
<stop stop-color="#1219D2"/>
<stop offset="1" stop-color="#4E52B1"/>
</linearGradient>
<linearGradient id="paint2_linear_18848_3708" x1="-1.09605" y1="35.8594" x2="4.46437" y2="41.5851" gradientUnits="userSpaceOnUse">
<stop stop-color="#1219D2"/>
<stop offset="1" stop-color="#4E52B1"/>
</linearGradient>
<clipPath id="clip0_18848_3708">
<rect width="41.1737" height="40.908" rx="3.54182" fill="white"/>
</clipPath>
</defs>
</svg>
